<svg xmlns="http://www.w3.org/2000/svg" version="1.1" xmlns:xlink="http://www.w3.org/1999/xlink" xmlns:svgjs="http://svgjs.dev/svgjs" width="1440" height="560" preserveAspectRatio="none" viewBox="0 0 1440 560"><g mask="url(&quot;#SvgjsMask1000&quot;)" fill="none"><rect width="1440" height="560" x="0" y="0" fill="#0e2a47"></rect><path d="M1051.36 429.23L1052.96 429.23L1052.96 446.06L1051.36 446.06z" fill="#e73635"></path><path d="M1218.41 280.04L1238.28 280.04L1238.28 299.91L1218.41 299.91z" stroke="#e73635"></path><path d="M127.95 533.77L151.53 533.77L151.53 557.35L127.95 557.35z" stroke="#d3b714"></path><path d="M632.78 263.77L652.58 263.77L652.58 304.49L632.78 304.49z" fill="#e73635"></path><path d="M1192.39 147.86 a31.14 31.14 0 1 0 62.28 0 a31.14 31.14 0 1 0 -62.28 0z" stroke="#037b0b"></path><path d="M1410.62 281.96a35.42 35.42 0 1 0-70.55 6.39z" stroke="#d3b714"></path><path d="M1079.79 418.39a44.33 44.33 0 1 0 81.48-34.97z" stroke="#e73635"></path><path d="M1431.14 558.56L1444.9 558.56L1444.9 598.38L1431.14 598.38z" stroke="#e73635"></path><path d="M522.72 226.3 a11.91 11.91 0 1 0 23.82 0 a11.91 11.91 0 1 0 -23.82 0z" fill="#037b0b"></path><path d="M552.93 239.93 a5.85 5.85 0 1 0 11.7 0 a5.85 5.85 0 1 0 -11.7 0z" stroke="#e73635"></path><path d="M858.18 232.15a46.91 46.91 0 1 0-92.64-14.83z" stroke="#d3b714"></path><path d="M958.94 209.5L959.66 209.5L959.66 251.53L958.94 251.53z" fill="#d3b714"></path><path d="M1250.06 300.45a39.5 39.5 0 1 0 78.96 2.36z" fill="#d3b714"></path><path d="M358.87 99.12L414.31 99.12L414.31 154.56L358.87 154.56z" fill="#d3b714"></path><path d="M1211.18 315.16a37.47 37.47 0 1 0 65.53 36.36z" fill="#e73635"></path><path d="M230.87 128.06a9.63 9.63 0 1 0 10.93-15.86z" fill="#d3b714"></path><path d="M454.46 107.97L465.1 107.97L465.1 162.68L454.46 162.68z" fill="#037b0b"></path><path d="M203.13 467.17a21.14 21.14 0 1 0 23.56 35.11z" fill="#d3b714"></path><path d="M12.95 7.37L30.29 7.37L30.29 43.83L12.95 43.83z" stroke="#e73635"></path><path d="M1354.44 294.33L1402.53 294.33L1402.53 342.42L1354.44 342.42z" fill="#e73635"></path><path d="M1357.55 514.85a14.13 14.13 0 1 0-24.44-14.19z" stroke="#d3b714"></path><path d="M1152.99 77.47L1196.93 77.47L1196.93 121.41L1152.99 121.41z" stroke="#037b0b"></path><path d="M980.27 328.67 a16.93 16.93 0 1 0 33.86 0 a16.93 16.93 0 1 0 -33.86 0z" stroke="#e73635"></path><path d="M470.58 435.64a42.55 42.55 0 1 0 13.28-84.06z" stroke="#037b0b"></path><path d="M864.76 453.34L868.76 453.34L868.76 485.93L864.76 485.93z" fill="#037b0b"></path><path d="M1242.99 82.34 a0.88 0.88 0 1 0 1.76 0 a0.88 0.88 0 1 0 -1.76 0z" fill="#037b0b"></path><path d="M692.17 325.45 a10.3 10.3 0 1 0 20.6 0 a10.3 10.3 0 1 0 -20.6 0z" fill="#037b0b"></path><path d="M1311.03 515.93L1327 515.93L1327 570.86L1311.03 570.86z" fill="#d3b714"></path><path d="M51.82 543.74a8.56 8.56 0 1 0-3.8 16.69z" fill="#e73635"></path><path d="M157.29 245.8 a10.35 10.35 0 1 0 20.7 0 a10.35 10.35 0 1 0 -20.7 0z" stroke="#037b0b"></path><path d="M961.33 187.02L1011.76 187.02L1011.76 237.45L961.33 237.45z" fill="#037b0b"></path><path d="M575.6 122.86L587.03 122.86L587.03 158.37L575.6 158.37z" fill="#e73635"></path><path d="M606.17 444.26a36.01 36.01 0 1 0-12.26 70.97z" stroke="#037b0b"></path></g><defs><mask id="SvgjsMask1000"><rect width="1440" height="560" fill="#ffffff"></rect></mask></defs></svg>
